<svg width="214" height="80" viewBox="0 0 214 80" fill="none" xmlns="http://www.w3.org/2000/svg">
<path d="M211.879 41.6704L182.818 31.8242L137.023 77.7143H175.772L211.879 41.6704Z" fill="#FF5F00"/>
<path d="M175.772 2.90039L211.879 38.9443L181.321 25.8454L175.596 29.0103C170.841 31.6476 164.852 30.7685 160.977 26.9004L137.023 2.90039" fill="#FF5F00"/>
<path d="M14.1751 20.043H2.72656V60.6584H14.1751V20.043Z" fill="#008556"/>
<path d="M83.4798 20.043H72.0312V60.6584H83.4798V20.043Z" fill="#008556"/>
<path d="M52.9274 35.8671C60.325 35.8671 65.8731 39.999 65.8731 48.1748C65.8731 54.9441 60.9414 60.5704 52.9274 60.5704H21.6641V20.043H60.7653V29.977H33.0246V35.8671H52.9274ZM51.5184 51.2518C53.5439 51.2518 54.6888 50.3726 54.6888 48.2627C54.6888 46.1529 53.5439 45.2737 51.5184 45.2737H33.0246V51.2518H51.5184Z" fill="#008556"/>
<path d="M127.164 45.0102C126.284 49.1421 120.824 51.6036 113.955 51.6036C105.5 51.6036 100.745 47.1201 100.745 40.3509C100.745 33.5816 105.5 29.0981 113.955 29.0981C120.736 29.0981 126.196 31.4718 127.076 35.6915H138.173C137.116 25.6696 128.133 19.1641 113.955 19.1641C98.8073 19.1641 89.6484 27.6036 89.6484 40.3509C89.6484 53.0981 98.8073 61.5377 113.955 61.5377C128.133 61.5377 137.116 55.1201 138.173 45.0102H127.164Z" fill="#008556"/>
</svg>
