<svg width="91" height="24" viewBox="0 0 91 24" fill="none" xmlns="http://www.w3.org/2000/svg">
<g clip-path="url(#clip0_201_5884)">
<path d="M85.7787 24.0001C84.4051 24.0084 83.082 23.4797 82.0887 22.5256C81.1004 21.5731 80.5574 20.3131 80.5574 18.9721V0.000100616H84.0385V18.9856C84.0385 19.4281 84.219 19.8571 84.5532 20.1789C84.8867 20.4892 85.3243 20.6617 85.7787 20.6618C86.7394 20.6618 87.5189 19.9103 87.5189 18.9856V0.000100616H91V18.9856C91 21.7479 88.6616 24.0001 85.7787 24.0001ZM76.0424 1.47385C75.0491 0.520042 73.726 -0.00838406 72.3525 0.000100616C69.4703 0.000100616 67.1311 2.2516 67.1311 5.0251V24.0001H70.6123V17.2996H74.0927V24.0001H77.5738V5.0251C77.5738 3.68485 77.0308 2.4256 76.0424 1.47385ZM70.6123 13.9501V5.0251C70.6123 4.10035 71.3917 3.35035 72.3525 3.35035C72.8119 3.35035 73.2572 3.52435 73.578 3.84535C73.9121 4.16785 74.0927 4.58335 74.0927 5.0251V13.9501H70.6123ZM62.6162 1.4356C62.0583 0.910829 61.3928 0.515533 60.6664 0.277601C60.1049 0.092007 59.5173 -0.00168636 58.9262 0.000100616H53.7049V24.0001H58.9262C59.5173 24.0021 60.1048 23.9087 60.6664 23.7234C61.3928 23.4852 62.0584 23.0896 62.6162 22.5646C63.6045 21.6294 64.1475 20.3911 64.1475 19.0726V4.9276C64.1475 3.60985 63.6045 2.37085 62.6162 1.4356ZM60.6664 17.2561V18.9946C60.6664 19.4559 60.4859 19.9171 60.1376 20.2321C59.3857 20.9176 58.6197 20.6941 57.186 20.6941V3.27985C58.6197 3.27985 59.3857 3.05635 60.1376 3.7411C60.4859 4.05685 60.6672 4.5181 60.6672 4.9786L60.6664 17.2561ZM45.5 24.0001C44.1264 24.0084 42.8033 23.4797 41.81 22.5256C40.8217 21.5731 40.2787 20.3131 40.2787 18.9721V0.000100616H43.7598V18.9856C43.7607 19.2092 43.8068 19.4302 43.8953 19.6354C43.9838 19.8405 44.1128 20.0254 44.2745 20.1789C44.608 20.4892 45.0456 20.6617 45.5 20.6618C46.4607 20.6618 47.2402 19.9103 47.2402 18.9856V0.000100616H50.7213V18.9856C50.7213 21.7479 48.368 24.0001 45.5 24.0001ZM35.7637 1.47385C34.7704 0.520042 33.4473 -0.00838406 32.0738 0.000100616C29.1916 0.000100616 26.8525 2.2516 26.8525 5.0251V24.0001H30.3336V17.2996H33.814V24.0001H37.2951V5.0251C37.2951 3.68485 36.7521 2.4256 35.7637 1.47385ZM30.3336 13.9501V5.0251C30.3336 4.10035 31.113 3.35035 32.0738 3.35035C32.5332 3.35035 32.9785 3.52435 33.2993 3.84535C33.6335 4.16785 33.814 4.58335 33.814 5.0251V13.9501H30.3336ZM23.8689 24.0001H20.4593V5.0281C20.4593 4.5856 20.2818 4.1566 19.9544 3.84835C19.6351 3.52966 19.2033 3.35113 18.7535 3.35185C17.8136 3.35185 17.0491 4.1026 17.0491 5.0281V18.2881C17.0491 21.0631 14.7577 23.3161 11.9344 23.3161C10.5836 23.3213 9.28513 22.7916 8.31979 21.8416C7.35161 20.8891 6.81978 19.6291 6.81978 18.2881V5.0281C6.81978 4.5856 6.64225 4.1566 6.3148 3.84835C5.99575 3.52984 5.56424 3.35133 5.11465 3.35185C4.17332 3.35185 3.40952 4.1026 3.40952 5.0281V24.0001H0V5.0281C0 2.2531 2.29141 0.000100616 5.11465 0.000100616C6.4789 0.000100616 7.76111 0.522851 8.72929 1.4746C9.69747 2.42635 10.2293 3.6871 10.2293 5.0281V18.2881C10.2293 18.7306 10.4068 19.1596 10.7343 19.4686C11.057 19.7815 11.4862 19.9588 11.9344 19.9643C12.8758 19.9643 13.6396 19.2136 13.6396 18.2881V5.0281C13.6396 2.2531 15.931 0.000100616 18.7542 0.000100616C20.1177 0.000100616 21.3999 0.522851 22.3688 1.4746C23.3378 2.42635 23.8689 3.6871 23.8689 5.0281V24.0001Z" fill="#101834"/>
</g>
<defs>
<clipPath id="clip0_201_5884">
<rect width="91" height="24" fill="white"/>
</clipPath>
</defs>
</svg>
