<svg width="130" height="38" viewBox="0 0 130 38" fill="none" xmlns="http://www.w3.org/2000/svg">
<g clip-path="url(#clip0_201_5848)">
<path d="M62.707 0.78219C64.2715 -0.278407 66.2243 1.67264 65.3126 3.29473C64.4234 4.34398 63.1516 4.96786 62.2343 5.99443C59.6343 8.76219 58.6494 12.738 59.049 16.47C59.5048 18.2055 57.3888 19.6347 55.9537 18.5628C54.8282 17.3717 55.1827 15.6305 55.1321 14.1446C55.3853 8.84726 57.9516 3.39682 62.707 0.78219Z" fill="#F82837"/>
<path d="M69.9719 4.65635C71.1256 4.13456 72.7632 4.83784 72.6676 6.25575C72.8814 8.16142 70.4727 8.35426 69.2628 9.13695C66.2013 10.4981 64.5186 13.7026 64.1922 16.9411C64.1416 18.671 62.0818 18.5746 60.9394 18.0414C59.4987 12.0352 64.468 6.24441 69.9719 4.65635Z" fill="#F82837"/>
<path d="M72.8685 10.5894C73.8759 10.4306 75.0239 10.1356 75.9244 10.8106C77.1118 11.5876 76.8192 13.9073 75.2828 14.0491C73.4876 14.3837 71.2984 14.6389 70.3192 16.4312C69.6607 17.3783 69.475 18.9494 68.085 19.0458C66.8863 19.2727 65.8902 18.1553 65.9915 16.9927C66.6274 13.6634 69.6213 11.1282 72.8685 10.5894Z" fill="#F82837"/>
<path d="M1.52576 15.7505C5.66212 13.2493 11.0084 13.1075 15.3755 15.1096C15.989 15.4045 16.6812 15.6994 17.047 16.3176C18.2063 17.5824 16.3266 19.7773 14.8859 19.006C12.3591 17.9227 9.60151 17.1343 6.84394 17.7526C4.93052 18.0645 3.14091 19.6072 1.17121 18.7054C1.0474 17.7639 0.518398 16.38 1.52576 15.7505Z" fill="#F82837"/>
<path d="M121.257 13.8374C122.731 13.2872 124.459 14.8469 124.003 16.4123C123.907 18.3463 121.032 18.8398 120.064 17.3254C119.304 16.0777 119.765 14.2344 121.257 13.8374Z" fill="#F82837"/>
<path d="M126.91 15.0458C128.599 14.4219 130.394 16.3956 129.561 18.0404C129.1 19.532 127.04 19.7192 125.959 18.8117C124.913 17.6547 125.239 15.3974 126.91 15.0458Z" fill="#F82837"/>
<path d="M114.481 15.4265C116.259 13.9632 119.129 16.3226 117.807 18.2793C116.991 20.2077 113.761 19.5441 113.659 17.5193C113.524 16.7139 113.924 15.9709 114.481 15.4265Z" fill="#F82837"/>
<path d="M6.36875 21.1091C10.7752 19.5607 16.0822 22.2548 17.2302 26.8602C17.793 29.747 17.5341 32.753 17.4778 35.6796C17.3765 37.8631 14.0787 38.453 13.0263 36.6664C11.8839 33.5073 13.741 29.6563 11.6644 26.8034C9.66096 24.2512 5.13066 26.2816 5.61464 29.4748C5.54711 31.8455 8.0233 32.7473 9.94797 33.0252C12.2384 33.547 11.9177 37.5569 9.53715 37.6476C5.62027 38.141 1.79343 35.1634 0.876111 31.3691C-0.435145 27.1891 2.32806 22.4533 6.36875 21.1091Z" fill="#F82837"/>
<path d="M21.5483 21.0412C22.8652 20.3493 24.6717 20.7973 25.2345 22.2606C25.4371 23.6956 25.3301 25.1588 25.3977 26.6108C27.176 26.6561 28.9544 26.6675 30.7271 26.5824C30.7384 25.1305 30.6089 23.6558 30.9241 22.2266C31.5319 20.0147 35.46 20.3153 35.5275 22.7144C35.6795 27.0361 35.6682 31.375 35.5388 35.6967C35.5107 38.1242 31.5037 38.4475 30.9128 36.1902C30.5864 34.7609 30.744 33.2863 30.7327 31.8344C28.9544 31.7493 27.176 31.7606 25.3977 31.806C25.1332 33.5982 25.9492 35.8215 24.4916 37.2224C23.0172 38.3567 20.586 37.489 20.4622 35.5323C20.2596 32.1973 20.4566 28.8454 20.3778 25.4991C20.4003 23.9791 20.147 22.0621 21.5483 21.0412Z" fill="#F82837"/>
<path d="M37.5251 24.5408C36.4052 23.1343 37.5251 20.6614 39.3823 20.7635C43.5018 20.6728 47.6325 20.6331 51.7464 20.8032C53.5303 20.9053 54.1494 23.3271 53.2208 24.6316C51.9377 26.2707 49.6303 25.3973 47.8576 25.6071C47.5875 29.0555 48.0602 32.5605 47.5875 35.9805C47.0697 38.4591 43.0516 38.1585 42.8208 35.6743C42.6689 32.328 42.8377 28.9704 42.7364 25.6241C41.0087 25.4029 38.6732 26.2764 37.5251 24.5408Z" fill="#F82837"/>
<path d="M59.3106 21.2001C63.8634 19.4475 69.553 22.3458 70.4534 27.2574C71.7028 31.8798 68.3205 37.0523 63.5933 37.6252C58.9617 38.578 54.0825 34.8404 53.8461 30.0705C53.3508 26.2932 55.7426 22.4365 59.3106 21.2001ZM61.0777 25.8678C58.7253 26.6278 57.8305 29.9741 59.727 31.6869C61.2915 33.5132 64.4487 32.9234 65.3885 30.7511C66.953 28.1762 63.7846 24.6314 61.0777 25.8678Z" fill="#F82837"/>
<path d="M73.5334 21.3653C74.9573 19.8793 77.9343 21.093 77.6867 23.2426C78.0975 26.4017 76.9213 29.8898 78.4183 32.805C79.0992 32.7312 79.859 32.7426 80.3542 32.1811C80.8832 28.9596 80.191 25.6474 80.7257 22.4429C81.2997 20.1969 84.6257 20.2083 85.4473 22.2727C85.7512 25.4035 85.3629 28.5626 85.633 31.699C85.8638 32.9411 87.5127 33.0772 88.2218 32.1754C88.6945 28.9256 87.9404 25.5623 88.6101 22.3521C89.2573 19.9587 93.0447 20.3557 93.3655 22.7662C93.5174 25.3921 93.3824 28.0295 93.433 30.6611C93.6075 33.3041 92.1386 36.0095 89.7187 37.1211C87.6027 38.1817 85.1828 37.6372 83.1625 36.6447C81.7161 37.0247 80.3317 37.8187 78.7841 37.6769C76.0715 37.6769 73.5841 35.5784 73.0213 32.9184C72.4642 30.491 72.8131 27.9727 72.7118 25.5056C72.7624 24.1217 72.4923 22.4656 73.5334 21.3653Z" fill="#F82837"/>
<path d="M96.2215 22.6983C96.3172 20.3786 100.093 19.9986 100.802 22.1197C101.292 23.8666 100.938 25.7099 101.196 27.4965C103.796 25.6418 105.569 22.8344 108.169 20.9797C110.178 19.8 112.626 22.2502 111.473 24.275C110.246 26.0899 108.411 27.3717 106.999 29.0335C107.916 31.3532 111.191 32.4535 111.72 35.1362C111.99 37.2233 109.312 38.5108 107.775 37.2006C105.445 35.2609 103.633 32.7541 101.191 30.9448C100.988 32.7257 101.27 34.5577 100.814 36.3045C100.122 38.4541 96.2891 38.0684 96.2159 35.7203C96.1146 31.3815 96.1146 27.0371 96.2215 22.6983Z" fill="#F82837"/>
<path d="M114.588 24.1385C117.537 19.7146 124.639 19.6239 127.903 23.7131C130.278 26.4582 129.89 30.3263 130.002 33.7122V35.5782C129.501 37.7278 126.412 38.6069 125.275 36.5197C124.279 33.6896 125.579 30.4454 124.532 27.6152C123.48 25.2955 120.013 24.9496 118.583 27.0934C116.968 29.0161 118.206 32.2773 120.683 32.6233C122.225 32.8842 124.273 33.6839 123.84 35.6576C123.367 38.3573 119.85 37.9093 117.987 37.0472C113.091 35.1188 111.363 28.2731 114.588 24.1385Z" fill="#F82837"/>
</g>
<defs>
<clipPath id="clip0_201_5848">
<rect width="130" height="38" fill="white"/>
</clipPath>
</defs>
</svg>
