<svg width="114" height="20" viewBox="0 0 114 20" fill="none" xmlns="http://www.w3.org/2000/svg">
<path d="M88.3453 0H0V20H88.3453V0Z" fill="#F82837"/>
<path d="M113.998 0H88.3438V20H113.998V0Z" fill="#FFE000"/>
<path d="M36.8952 9.93848L31.875 4.64453V15.3504H34.1436V10.1621L36.8952 13.0546L39.6462 10.1621V15.3504H41.9148V4.64453L36.8952 9.93848Z" fill="white"/>
<path d="M14.1719 4.71094V7.0669H17.1697V15.2908H19.4382V7.0669H22.4499V4.71094H14.1719Z" fill="white"/>
<path d="M26.1037 9.50482L27.6207 12.9193H24.5804L26.1037 9.50482ZM26.1037 4.58398L21.1406 15.2899H31.0675L26.1037 4.58398Z" fill="white"/>
<path d="M47.6825 9.50482L49.1995 12.9193H46.1592L47.6825 9.50482ZM47.6825 4.58398L42.7188 15.2899H52.6456L47.6818 4.58398H47.6825Z" fill="white"/>
<path d="M53.4609 4.58398V15.2899H55.7295V9.75845L62.0827 15.4094V4.70347H59.8135V10.2349L53.4609 4.58398Z" fill="white"/>
<path d="M69.763 4.70312L66.2458 10.011V4.70312H63.9766V15.2895H66.2458V10.3247L70.0181 15.2895H72.8263L68.8413 10.0411L72.3724 4.70312H69.763Z" fill="white"/>
<path d="M8.74937 4.58789C11.5854 4.58789 13.8972 7.01789 13.8972 10.0006C13.8972 12.9833 11.5861 15.4133 8.74937 15.4133C5.91263 15.4133 3.60156 12.9833 3.60156 10.0006C3.60156 7.01789 5.91263 4.58789 8.74937 4.58789ZM8.74937 6.88374C7.11871 6.88374 5.88476 8.30069 5.88476 9.99985C5.88476 11.699 7.11871 13.116 8.74937 13.116C10.38 13.116 11.614 11.6998 11.614 9.99985C11.614 8.29996 10.38 6.88374 8.74937 6.88374Z" fill="white"/>
<path d="M83.8376 15.2852H73.7734V4.70312H83.8376V15.2852ZM81.5698 7.05835H76.0413V12.9307H81.5698V7.05762V7.05835Z" fill="white"/>
<path d="M92.8158 9.09837V5.40903H91.7031V4.70312H94.6235V5.40903H93.5053V9.09837H92.8158Z" fill="#101834"/>
<path d="M97.1199 8.68293C96.8257 8.993 96.4625 9.14694 96.0303 9.14694C95.598 9.14694 95.2355 8.993 94.9413 8.68293C94.6471 8.37359 94.5 7.99608 94.5 7.5504C94.5 7.10472 94.6471 6.72647 94.9413 6.41713C95.2355 6.10779 95.5987 5.95312 96.0303 5.95312C96.4618 5.95312 96.8257 6.10779 97.1199 6.41713C97.4141 6.72647 97.5612 7.10398 97.5612 7.5504C97.5612 7.99681 97.4141 8.37359 97.1199 8.68293ZM95.4035 8.23725C95.5666 8.41904 95.7758 8.50994 96.0303 8.50994C96.2847 8.50994 96.4932 8.41904 96.6542 8.23725C96.8153 8.05546 96.8955 7.82675 96.8955 7.5504C96.8955 7.27405 96.8153 7.04461 96.6542 6.86282C96.4932 6.68102 96.2854 6.59013 96.0303 6.59013C95.7751 6.59013 95.5666 6.68102 95.4035 6.86282C95.2404 7.04461 95.1595 7.27405 95.1595 7.5504C95.1595 7.82675 95.2404 8.05546 95.4035 8.23725Z" fill="#101834"/>
<path d="M98.3661 10.2367L98.9022 8.93114L97.7422 6.00195H98.4372L99.2439 8.15046L100.05 6.00195H100.745L99.0556 10.2367H98.3661Z" fill="#101834"/>
<path d="M101.962 9.14767C101.464 9.14767 101.099 8.93729 100.867 8.51653L101.373 8.15735C101.518 8.43003 101.723 8.56564 101.985 8.56564C102.103 8.56564 102.201 8.53999 102.28 8.48868C102.358 8.43736 102.397 8.36406 102.397 8.26877C102.397 8.17347 102.364 8.09651 102.298 8.0364C102.231 7.97702 102.113 7.91618 101.944 7.85387L101.744 7.77324C101.258 7.58338 101.014 7.26745 101.014 6.82616C101.014 6.57473 101.104 6.36582 101.285 6.20089C101.465 6.03596 101.693 5.95312 101.968 5.95312C102.384 5.95312 102.684 6.13052 102.869 6.48531L102.433 6.83276C102.327 6.62605 102.172 6.52269 101.968 6.52269C101.874 6.52269 101.793 6.54688 101.727 6.59673C101.66 6.64584 101.626 6.71254 101.626 6.79464C101.626 6.88114 101.656 6.95371 101.715 7.01162C101.773 7.0688 101.882 7.12891 102.039 7.19121L102.239 7.27185C102.506 7.37447 102.703 7.50275 102.828 7.65595C102.954 7.80842 103.017 7.99828 103.017 8.22479C103.017 8.49747 102.92 8.71885 102.725 8.89038C102.531 9.06191 102.277 9.14694 101.962 9.14694" fill="#101834"/>
<path d="M92.8281 15.2527V10.8574H93.4758V12.4239C93.6996 12.2135 93.9763 12.108 94.3061 12.108C94.73 12.108 95.0813 12.2626 95.3602 12.572C95.6391 12.8813 95.7778 13.2588 95.7778 13.7052C95.7778 14.1517 95.6384 14.5284 95.3602 14.8378C95.0813 15.1478 94.73 15.3018 94.3061 15.3018C93.9721 15.3018 93.6961 15.1992 93.4758 14.9924V15.2527H92.8281ZM94.2469 12.7391C93.8976 12.7391 93.6403 12.8777 93.4751 13.154V14.2616C93.6403 14.5343 93.8976 14.6706 94.2469 14.6706C94.502 14.6706 94.7111 14.579 94.8736 14.395C95.0367 14.2118 95.1183 13.9816 95.1183 13.7052C95.1183 13.4289 95.0367 13.1987 94.8736 13.0147C94.7111 12.8315 94.5013 12.7391 94.2469 12.7391Z" fill="#101834"/>
<path d="M96.5934 16.391L97.1288 15.0847L95.9688 12.1562H96.6638L97.4704 14.3048L98.2771 12.1562H98.9721L97.2822 16.391H96.5934Z" fill="#101834"/>
<path d="M101.488 10.8574H100.805V15.2527H101.488V10.8574Z" fill="#101834"/>
<path d="M102.523 15.2527V10.8574H103.983C104.353 10.8574 104.65 10.9725 104.878 11.2041C105.106 11.4358 105.22 11.7224 105.22 12.0647C105.22 12.4283 105.092 12.7127 104.837 12.9194C105.281 13.1218 105.503 13.4787 105.503 13.9904C105.503 14.3701 105.374 14.675 105.118 14.9067C104.86 15.1376 104.53 15.2534 104.126 15.2534H102.524L102.523 15.2527ZM103.207 12.7083H103.937C104.121 12.7083 104.268 12.6526 104.378 12.5412C104.487 12.4305 104.542 12.2876 104.542 12.1138C104.542 11.9401 104.487 11.8082 104.378 11.6931C104.268 11.5773 104.121 11.5193 103.937 11.5193H103.207V12.7083ZM103.207 14.59H104.131C104.351 14.59 104.52 14.5321 104.64 14.4163C104.76 14.3012 104.82 14.148 104.82 13.9581C104.82 13.7683 104.76 13.6151 104.64 13.4971C104.52 13.379 104.351 13.3204 104.131 13.3204H103.207V14.59Z" fill="#101834"/>
<path d="M106.933 10.8574H106.25V15.2527H106.933V10.8574Z" fill="#101834"/>
<path d="M109.03 15.3008C108.72 15.3008 108.442 15.2327 108.194 15.0963C107.947 14.96 107.755 14.7789 107.617 14.5517L108.135 14.0935C108.237 14.246 108.367 14.3721 108.523 14.4711C108.68 14.57 108.846 14.6199 109.018 14.6199C109.223 14.6199 109.382 14.5752 109.495 14.4843C109.609 14.3934 109.666 14.2695 109.666 14.1126C109.666 13.9557 109.618 13.8245 109.522 13.7197C109.426 13.6149 109.269 13.5123 109.054 13.4133L108.724 13.2645C108.1 12.972 107.788 12.5403 107.788 11.9707C107.788 11.6284 107.911 11.3483 108.159 11.1314C108.406 10.9144 108.696 10.8066 109.03 10.8066C109.513 10.8066 109.904 10.9921 110.202 11.3637L109.725 11.8776C109.619 11.7376 109.512 11.6372 109.404 11.5778C109.296 11.5177 109.168 11.4884 109.018 11.4884C108.869 11.4884 108.742 11.5316 108.636 11.6181C108.53 11.7046 108.477 11.8204 108.477 11.9648C108.477 12.1092 108.523 12.2309 108.615 12.3306C108.707 12.4296 108.861 12.5285 109.077 12.6275L109.401 12.7763C110.037 13.0732 110.355 13.4983 110.355 14.0518C110.355 14.4234 110.234 14.7247 109.993 14.9556C109.752 15.1872 109.431 15.3023 109.03 15.3023" fill="#101834"/>
</svg>
