<svg width="71" height="75" viewBox="0 0 71 75" fill="none" xmlns="http://www.w3.org/2000/svg">
<path d="M70.895 34.0202L57.0711 41.0349L70.895 75.0009H0L13.8239 41.0349L0 34.0202L13.8239 27.0054L6.76955 13.2163L22.0906 15.6597L24.4923 0.359375L35.4475 11.3309L46.4027 0.359375L48.8023 15.6597L64.1233 13.2163L57.0711 27.0054L70.895 34.0202Z" fill="#F82837"/>
<path d="M16.5078 28.502V31.8024H20.928V43.3153H24.2762V31.8024H28.7152V28.502H16.5078Z" fill="#15347E"/>
<path d="M42.1875 28.502V31.8024H46.6077V43.3153H49.9537V31.8024H54.3949V28.502H42.1875Z" fill="#15347E"/>
<path d="M35.8867 37.0391C40.064 37.0391 43.4687 40.4377 43.4687 44.6077C43.4687 48.7777 40.064 52.1764 35.8867 52.1764C31.7094 52.1764 28.3047 48.7777 28.3047 44.6077C28.3047 40.4377 31.7094 37.0391 35.8867 37.0391ZM35.8867 40.2496C33.485 40.2496 31.6675 42.2312 31.6675 44.6077C31.6675 46.9843 33.485 48.9658 35.8867 48.9658C38.2884 48.9658 40.1059 46.9843 40.1059 44.6077C40.1059 42.2312 38.2884 40.2496 35.8867 40.2496Z" fill="#15347E"/>
</svg>
