<svg width="68" height="71" viewBox="0 0 68 71" fill="none" xmlns="http://www.w3.org/2000/svg">
<path d="M21.5234 14.185V57.7576L44.5018 71.0011L67.4802 57.7576V14.185L44.5018 0.941406L21.5234 14.185Z" fill="#009BF0"/>
<path d="M0.890625 14.185V57.7576L23.869 71.0011L46.8495 57.7576V14.185L23.869 0.941406L0.890625 14.185Z" fill="#009BF0"/>
<path d="M28.1797 53.0306H31.0839V49.1532H41.2205V46.2165H31.0839V42.3203H28.1797V53.0306Z" fill="white"/>
<path d="M46.5639 26.6348C50.2407 26.6348 53.2371 29.6259 53.2371 33.2963C53.2371 36.9667 50.2407 39.9578 46.5639 39.9578C42.887 39.9578 39.8906 36.9667 39.8906 33.2963C39.8906 29.6259 42.887 26.6348 46.5639 26.6348ZM46.5639 29.4607C44.4511 29.4607 42.8514 31.204 42.8514 33.2963C42.8514 35.3886 44.4511 37.1318 46.5639 37.1318C48.6766 37.1318 50.2763 35.3886 50.2763 33.2963C50.2763 31.204 48.6766 29.4607 46.5639 29.4607Z" fill="white"/>
<path d="M28.1778 39.8072H15.1328V26.7852H28.1778V39.8072ZM25.2379 29.6822H18.0726V36.9081H25.2379V29.6822Z" fill="white"/>
</svg>
