<svg width="71" height="71" viewBox="0 0 71 71" fill="none" xmlns="http://www.w3.org/2000/svg">
<path d="M70.6695 35.9713C70.6695 55.3183 54.957 71.0011 35.5759 71.0011C16.1948 71.0011 0.484375 55.3183 0.484375 35.9713C0.484375 16.6243 16.1969 0.941406 35.5759 0.941406C54.9549 0.941406 70.6695 16.6243 70.6695 35.9713Z" fill="#FFE000"/>
<path d="M19.3019 26.0273H16.2344V37.3375H19.3019V33.2239H30.008V30.1221H19.3019V26.0273Z" fill="#F82837"/>
<path d="M51.8271 33.7568L47.3818 31.6833L54.9135 28.155V24.8984L40.9766 31.6833L54.9135 38.466V27.1371H51.8271V33.7568Z" fill="#F82837"/>
<path d="M28.875 37.5176H42.6088V51.2294H28.875V37.5176ZM31.9698 48.1777H39.5141V40.5693H31.9698V48.1777Z" fill="#F82837"/>
</svg>
