<svg width="80" height="71" viewBox="0 0 80 71" fill="none" xmlns="http://www.w3.org/2000/svg">
<path d="M30.6797 71.0011L30.6797 0.941406L0.672121 0.941406L0.672121 71.0011H30.6797Z" fill="#15347E"/>
<path d="M79.1562 71.0012V0.941406L49.1487 0.941406V71.0012H79.1562Z" fill="#15347E"/>
<path d="M40.8763 64.2662C56.5308 64.2662 69.2213 51.598 69.2213 35.971C69.2213 20.344 56.5308 7.67578 40.8763 7.67578C25.2217 7.67578 12.5312 20.344 12.5312 35.971C12.5312 51.598 25.2217 64.2662 40.8763 64.2662Z" fill="#15347E"/>
<path d="M40.4884 43.1708L47.6201 36.0703H33.1953V39.2788H40.1868L36.2901 43.1708L40.1868 47.0606H33.1953V50.2691H47.6201L40.4884 43.1708Z" fill="#FFE000"/>
<path d="M23.461 28.2895L25.6114 32.8817H21.3043L23.4631 28.2895H23.461ZM23.461 21.6719L16.4297 36.0713H30.4923L23.461 21.6719Z" fill="#FFE000"/>
<path d="M57.1172 28.2895L59.2676 32.8817H54.9605L57.1193 28.2895H57.1172ZM57.1172 21.6719L50.0859 36.0713H64.1485L57.1172 21.6719Z" fill="#FFE000"/>
</svg>
