<svg width="71" height="70" viewBox="0 0 71 70" fill="none" xmlns="http://www.w3.org/2000/svg">
<path d="M70.3393 40.0449H0.15625V69.9998H70.3393V40.0449Z" fill="#F82837"/>
<path d="M70.3393 0.103516H0.15625V7.49033H70.3393V0.103516Z" fill="#F82837"/>
<path d="M35.2478 45.2911C54.6283 45.2911 70.3393 35.5043 70.3393 23.4317C70.3393 11.3591 54.6283 1.57227 35.2478 1.57227C15.8673 1.57227 0.15625 11.3591 0.15625 23.4317C0.15625 35.5043 15.8673 45.2911 35.2478 45.2911Z" fill="#F82837"/>
<path d="M27.9026 20.794L20.7038 15.788H27.9026V12.5586H13.5469V15.788H20.2808L13.5469 21.1577V25.1542L20.664 19.4814L27.9026 24.5083V20.794Z" fill="#FFE000"/>
<path d="M56.9417 20.794L49.7429 15.788H56.9417V12.5586H42.5859V15.788H49.3178L42.5859 21.1577V25.1542L49.7031 19.4814L56.9417 24.5083V20.794Z" fill="#FFE000"/>
<path d="M35.2474 23.8477C39.2908 23.8477 42.5886 27.1377 42.5886 31.1759C42.5886 35.2142 39.2928 38.5042 35.2474 38.5042C31.202 38.5042 27.9062 35.2142 27.9062 31.1759C27.9062 27.1377 31.202 23.8477 35.2474 23.8477ZM35.2474 26.9558C32.9211 26.9558 31.1623 28.8725 31.1623 31.1739C31.1623 33.4752 32.9211 35.3919 35.2474 35.3919C37.5738 35.3919 39.3326 33.4752 39.3326 31.1739C39.3326 28.8725 37.5738 26.9558 35.2474 26.9558Z" fill="#FFE000"/>
</svg>
