<svg width="71" height="71" viewBox="0 0 71 71" fill="none" xmlns="http://www.w3.org/2000/svg">
<path d="M70.6695 35.9713C70.6695 55.3183 54.957 71.0011 35.5759 71.0011C16.1948 71.0011 0.484375 55.3183 0.484375 35.9713C0.484375 16.6243 16.1969 0.941406 35.5759 0.941406C54.9549 0.941406 70.6695 16.6243 70.6695 35.9713Z" fill="#15347E"/>
<path d="M53.0589 26.6309H56.3128V38.6349H53.0589V34.2664H41.6953V30.9764H53.0589V26.6309Z" fill="#009BF0"/>
<path d="M18.5426 34.8331L23.2601 32.6321L15.2656 28.8886V25.4355L30.059 32.6321L15.2656 39.8308V27.81H18.5426V34.8331Z" fill="#009BF0"/>
<path d="M35.62 38.6348C39.7408 38.6348 43.0973 41.9875 43.0973 46.101C43.0973 50.2145 39.7408 53.5672 35.62 53.5672C31.4992 53.5672 28.1406 50.2145 28.1406 46.101C28.1406 41.9875 31.4992 38.6348 35.62 38.6348ZM35.62 41.8014C33.2518 41.8014 31.4594 43.7558 31.4594 46.0989C31.4594 48.442 33.2518 50.3964 35.62 50.3964C37.9882 50.3964 39.7806 48.442 39.7806 46.0989C39.7806 43.7558 37.9882 41.8014 35.62 41.8014Z" fill="#009BF0"/>
</svg>
