<svg width="66" height="71" viewBox="0 0 66 71" fill="none" xmlns="http://www.w3.org/2000/svg">
<path d="M33.6719 10.5167V61.4238L65.6456 71.0011V0.941406L33.6719 10.5167Z" fill="#F82837"/>
<path d="M35.7009 0.941406C16.3198 0.941406 0.609375 16.6243 0.609375 35.9713C0.609375 55.3183 16.3198 71.0011 35.7009 71.0011V0.941406Z" fill="#F82837"/>
<path d="M28.8984 42.5058L35.3895 47.0206H28.8984V49.9323H41.8429V47.0206H35.7727L41.8429 42.1797V38.5762L35.4251 43.6888L28.8984 39.1573V42.5058Z" fill="white"/>
<path d="M20.2964 27.5234C23.9418 27.5234 26.9131 30.4895 26.9131 34.1285C26.9131 37.7676 23.9418 40.7336 20.2964 40.7336C16.6509 40.7336 13.6797 37.7676 13.6797 34.1285C13.6797 30.4895 16.6509 27.5234 20.2964 27.5234ZM20.2964 30.3264C18.2004 30.3264 16.6132 32.055 16.6132 34.1306C16.6132 36.2062 18.2004 37.9348 20.2964 37.9348C22.3924 37.9348 23.9795 36.2062 23.9795 34.1306C23.9795 32.055 22.3924 30.3264 20.2964 30.3264Z" fill="white"/>
<path d="M57.7194 40.5873H44.7812V27.6719H57.7194V40.5873ZM54.8047 30.5459H47.6981V37.7133H54.8047V30.5459Z" fill="white"/>
</svg>
