<svg width="841" height="657" viewBox="0 0 841 657" fill="none" xmlns="http://www.w3.org/2000/svg">
<g clip-path="url(#clip0_201_5477)">
<path d="M418.225 562.433L560.274 808.47L465.525 863.173L506.217 933.653L766.626 783.306L725.935 712.826L631.637 767.269L489.587 521.232L418.225 562.433Z" fill="white"/>
<path d="M578.422 239.142L685.143 313.731L589.492 368.955L578.422 239.142ZM522.231 502.363L834.491 322.079L493.422 91.917L522.231 502.363Z" fill="white"/>
<path d="M93.9352 320.2C183.155 268.689 297.855 299.425 349.368 388.649C400.881 477.872 370.149 592.573 280.93 644.084C191.71 695.595 77.0104 664.859 25.4972 575.635C-26.0159 486.412 4.71548 371.711 93.9352 320.2ZM133.595 388.893C82.2948 418.511 67.9421 483.306 97.301 534.157C126.66 585.008 189.934 604.986 241.251 575.358C292.568 545.73 306.887 480.954 277.528 430.103C248.169 379.252 184.895 359.274 133.595 388.893Z" fill="white"/>
</g>
<defs>
<clipPath id="clip0_201_5477">
<rect width="841" height="657" fill="white"/>
</clipPath>
</defs>
</svg>
