<svg width="71" height="75" viewBox="0 0 71 75" fill="none" xmlns="http://www.w3.org/2000/svg">
<path d="M70.895 34.0192L57.0711 41.0339L70.895 74.9999H0L13.8239 41.0339L0 34.0192L13.8239 27.0044L6.76955 13.2153L22.0906 15.6588L24.4923 0.358398L35.4475 11.3299L46.4027 0.358398L48.8023 15.6588L64.1233 13.2153L57.0711 27.0044L70.895 34.0192Z" fill="#F82837"/>
<path d="M16.5078 28.501V31.8014H20.928V43.3143H24.2762V31.8014H28.7152V28.501H16.5078Z" fill="#15347E"/>
<path d="M42.1875 28.501V31.8014H46.6077V43.3143H49.9537V31.8014H54.3949V28.501H42.1875Z" fill="#15347E"/>
<path d="M35.8867 37.0371C40.064 37.0371 43.4687 40.4358 43.4687 44.6058C43.4687 48.7757 40.064 52.1744 35.8867 52.1744C31.7094 52.1744 28.3047 48.7757 28.3047 44.6058C28.3047 40.4358 31.7094 37.0371 35.8867 37.0371ZM35.8867 40.2477C33.485 40.2477 31.6675 42.2292 31.6675 44.6058C31.6675 46.9823 33.485 48.9639 35.8867 48.9639C38.2884 48.9639 40.1059 46.9823 40.1059 44.6058C40.1059 42.2292 38.2884 40.2477 35.8867 40.2477Z" fill="#15347E"/>
</svg>
