<svg width="129" height="143" viewBox="0 0 129 143" fill="none" xmlns="http://www.w3.org/2000/svg">
<path d="M15 70L3 51.5L6 25M99.5 57L121.5 62L126 89.5M81.5 102L83.5 139.597H108M28.5 100.5L13.5332 136.704L38.0332 136.704" stroke="#15347E" stroke-width="5"/>
<path d="M81.2979 0L19.1641 107H118.002L81.2979 0Z" fill="#FFE000"/>
<path d="M36.7036 0L98.8374 107H0L36.7036 0Z" fill="#FFE000"/>
<path d="M80.1659 69.0047L89.9334 78.7444V59.0479H85.5185V68.5929L80.1659 63.2713L74.8134 68.5929V59.0479H70.3984V78.7444L80.1659 69.0047Z" fill="#15347E"/>
<path d="M37.8339 69.0047L47.6015 78.7444V59.0479H43.1865V68.5929L37.8339 63.2713L32.4782 68.5929V59.0479H28.0664V78.7444L37.8339 69.0047Z" fill="#15347E"/>
<path d="M67.0511 90.5944V86.2592H61.2201V71.1309H56.8052V86.2592H50.9453V90.5944H67.0511Z" fill="#15347E"/>
</svg>
