<svg width="68" height="71" viewBox="0 0 68 71" fill="none" xmlns="http://www.w3.org/2000/svg">
<path d="M21.5234 14.184V57.7566L44.5018 71.0002L67.4802 57.7566V14.184L44.5018 0.94043L21.5234 14.184Z" fill="#009BF0"/>
<path d="M0.890625 14.184V57.7566L23.869 71.0002L46.8495 57.7566V14.184L23.869 0.94043L0.890625 14.184Z" fill="#009BF0"/>
<path d="M28.1797 53.0276H31.0839V49.1503H41.2205V46.2135H31.0839V42.3174H28.1797V53.0276Z" fill="white"/>
<path d="M46.5639 26.6328C50.2407 26.6328 53.2371 29.6239 53.2371 33.2943C53.2371 36.9647 50.2407 39.9558 46.5639 39.9558C42.887 39.9558 39.8906 36.9647 39.8906 33.2943C39.8906 29.6239 42.887 26.6328 46.5639 26.6328ZM46.5639 29.4588C44.4511 29.4588 42.8514 31.202 42.8514 33.2943C42.8514 35.3866 44.4511 37.1299 46.5639 37.1299C48.6766 37.1299 50.2763 35.3866 50.2763 33.2943C50.2763 31.202 48.6766 29.4588 46.5639 29.4588Z" fill="white"/>
<path d="M28.1778 39.8052H15.1328V26.7832H28.1778V39.8052ZM25.2379 29.6802H18.0726V36.9061H25.2379V29.6802Z" fill="white"/>
</svg>
