<svg width="71" height="71" viewBox="0 0 71 71" fill="none" xmlns="http://www.w3.org/2000/svg">
<path d="M70.6695 35.9703C70.6695 55.3173 54.957 71.0002 35.5759 71.0002C16.1948 71.0002 0.484375 55.3173 0.484375 35.9703C0.484375 16.6233 16.1969 0.94043 35.5759 0.94043C54.9549 0.94043 70.6695 16.6233 70.6695 35.9703Z" fill="#FFE000"/>
<path d="M19.3019 26.0254H16.2344V37.3355H19.3019V33.222H30.008V30.1201H19.3019V26.0254Z" fill="#F82837"/>
<path d="M51.8271 33.7548L47.3818 31.6813L54.9135 28.153V24.8965L40.9766 31.6813L54.9135 38.4641V27.1351H51.8271V33.7548Z" fill="#F82837"/>
<path d="M28.875 37.5156H42.6088V51.2274H28.875V37.5156ZM31.9698 48.1757H39.5141V40.5673H31.9698V48.1757Z" fill="#F82837"/>
</svg>
