<svg width="71" height="70" viewBox="0 0 71 70" fill="none" xmlns="http://www.w3.org/2000/svg">
<path d="M70.3393 40.0459H0.15625V70.0007H70.3393V40.0459Z" fill="#F82837"/>
<path d="M70.3393 0.103516H0.15625V7.49033H70.3393V0.103516Z" fill="#F82837"/>
<path d="M35.2478 45.2921C54.6283 45.2921 70.3393 35.5053 70.3393 23.4327C70.3393 11.36 54.6283 1.57324 35.2478 1.57324C15.8673 1.57324 0.15625 11.36 0.15625 23.4327C0.15625 35.5053 15.8673 45.2921 35.2478 45.2921Z" fill="#F82837"/>
<path d="M27.9026 20.7931L20.7038 15.787H27.9026V12.5576H13.5469V15.787H20.2808L13.5469 21.1568V25.1532L20.664 19.4804L27.9026 24.5074V20.7931Z" fill="#FFE000"/>
<path d="M56.9417 20.7931L49.7429 15.787H56.9417V12.5576H42.5859V15.787H49.3178L42.5859 21.1568V25.1532L49.7031 19.4804L56.9417 24.5074V20.7931Z" fill="#FFE000"/>
<path d="M35.2474 23.8467C39.2908 23.8467 42.5886 27.1367 42.5886 31.175C42.5886 35.2133 39.2928 38.5033 35.2474 38.5033C31.202 38.5033 27.9062 35.2133 27.9062 31.175C27.9062 27.1367 31.202 23.8467 35.2474 23.8467ZM35.2474 26.9548C32.9211 26.9548 31.1623 28.8716 31.1623 31.1729C31.1623 33.4742 32.9211 35.3909 35.2474 35.3909C37.5738 35.3909 39.3326 33.4742 39.3326 31.1729C39.3326 28.8716 37.5738 26.9548 35.2474 26.9548Z" fill="#FFE000"/>
</svg>
