<svg width="90" height="71" viewBox="0 0 90 71" fill="none" xmlns="http://www.w3.org/2000/svg">
<path d="M25.943 0.940861L0.335938 26.5029L25.943 52.065L51.5501 26.5029L25.943 0.940861Z" fill="#FFE000"/>
<path d="M63.8805 0.939884L38.2734 26.502L63.8805 52.064L89.4876 26.502L63.8805 0.939884Z" fill="#FFE000"/>
<path d="M25.943 19.8745L0.335938 45.4365L25.943 70.9986L51.5501 45.4365L25.943 19.8745Z" fill="#FFE000"/>
<path d="M44.9118 19.8754L19.3047 45.4375L44.9117 70.9996L70.5188 45.4375L44.9118 19.8754Z" fill="#FFE000"/>
<path d="M63.8805 19.8764L38.2734 45.4385L63.8805 71.0005L89.4876 45.4385L63.8805 19.8764Z" fill="#FFE000"/>
<path d="M22.9688 48.6953H26.2478V44.3163H37.6888V41.0033H26.2478V36.6055H22.9688V48.6953Z" fill="#F82837"/>
<path d="M66.8451 36.6055H63.5681V40.9824H52.125V44.2974H63.5681V48.6953H66.8451V36.6055Z" fill="#F82837"/>
<path d="M44.9491 48.0928L47.1686 52.8355H42.7191L44.947 48.0928H44.9491ZM44.9491 41.2578L37.6875 56.1276H52.2107L44.9491 41.2578Z" fill="#F82837"/>
</svg>
