<svg width="82" height="71" viewBox="0 0 82 71" fill="none" xmlns="http://www.w3.org/2000/svg">
<path d="M81.6071 0.94043H0.671875V34.9252H81.6071V0.94043Z" fill="#009BF0"/>
<path d="M81.6071 70.9998H0.671875L15.3396 34.9248H66.9415L81.6071 70.9998Z" fill="#009BF0"/>
<path d="M38.8964 36.1045V47.9246H34.3359V51.3129H46.87V47.9246H42.3325V36.1045H38.8964Z" fill="#15347E"/>
<path d="M54.3822 27.7881L56.6792 32.6959H52.0747L54.3801 27.7881H54.3822ZM46.8672 36.1051H61.8972L54.3822 20.7148L46.8672 36.1051Z" fill="#15347E"/>
<path d="M26.9263 20.6289C31.2208 20.6289 34.7197 24.1237 34.7197 28.4087C34.7197 32.6936 31.2188 36.1884 26.9263 36.1884C22.6338 36.1884 19.1328 32.6957 19.1328 28.4087C19.1328 24.1217 22.6338 20.6289 26.9263 20.6289ZM26.9263 23.9294C24.4576 23.9294 22.5898 25.9652 22.5898 28.4087C22.5898 30.8521 24.4576 32.888 26.9263 32.888C29.395 32.888 31.2627 30.8521 31.2627 28.4087C31.2627 25.9652 29.395 23.9294 26.9263 23.9294Z" fill="#15347E"/>
</svg>
