<svg width="66" height="71" viewBox="0 0 66 71" fill="none" xmlns="http://www.w3.org/2000/svg">
<path d="M33.6719 10.5157V61.4228L65.6456 71.0002V0.94043L33.6719 10.5157Z" fill="#F82837"/>
<path d="M35.7009 0.94043C16.3198 0.94043 0.609375 16.6233 0.609375 35.9703C0.609375 55.3173 16.3198 71.0002 35.7009 71.0002V0.94043Z" fill="#F82837"/>
<path d="M28.8984 42.5038L35.3895 47.0187H28.8984V49.9303H41.8429V47.0187H35.7727L41.8429 42.1778V38.5742L35.4251 43.6869L28.8984 39.1553V42.5038Z" fill="white"/>
<path d="M20.2964 27.5215C23.9418 27.5215 26.9131 30.4875 26.9131 34.1266C26.9131 37.7656 23.9418 40.7316 20.2964 40.7316C16.6509 40.7316 13.6797 37.7656 13.6797 34.1266C13.6797 30.4875 16.6509 27.5215 20.2964 27.5215ZM20.2964 30.3245C18.2004 30.3245 16.6132 32.0531 16.6132 34.1287C16.6132 36.2042 18.2004 37.9328 20.2964 37.9328C22.3924 37.9328 23.9795 36.2042 23.9795 34.1287C23.9795 32.0531 22.3924 30.3245 20.2964 30.3245Z" fill="white"/>
<path d="M57.7194 40.5853H44.7812V27.6699H57.7194V40.5853ZM54.8047 30.544H47.6981V37.7113H54.8047V30.544Z" fill="white"/>
</svg>
