<svg width="248" height="48" viewBox="0 0 248 48" fill="none" xmlns="http://www.w3.org/2000/svg">
<path d="M48 24C48 37.2552 37.2541 48 23.9993 48C10.7445 48 0 37.2552 0 24C0 10.7448 10.7459 0 23.9993 0C37.2527 0 48 10.7448 48 24Z" fill="#F82837"/>
<path d="M27.75 34.322L27.75 36.4199L20.0011 36.4199L20.0011 34.322L22.8194 34.322L22.8194 27.0001L24.9446 27.0001L24.9446 34.322L27.75 34.322Z" fill="white"/>
<path d="M31.0403 23.4207L32.4609 20.3806L34.8782 25.5315L37.1094 25.5315L32.4609 16L27.8138 25.5315L35.5756 25.5315L35.5756 23.4207L31.0403 23.4207Z" fill="white"/>
<path d="M11 20.6972C11 18.1035 13.1026 16 15.6963 16C18.29 16 20.3926 18.1035 20.3926 20.6972C20.3926 23.2909 18.29 25.3944 15.6963 25.3944C13.1026 25.3944 11 23.2909 11 20.6972ZM13.1165 20.7237C13.1165 22.1485 14.2715 23.3035 15.6963 23.3035C17.1211 23.3035 18.2761 22.1485 18.2761 20.7237V20.6706C18.2761 19.2458 17.1211 18.0908 15.6963 18.0908C14.2715 18.0908 13.1165 19.2458 13.1165 20.6706V20.7237Z" fill="white"/>
<path d="M140.348 23.8684L128.836 12.1348V35.8635H134.038V24.3639L140.348 30.775L146.657 24.3639V35.8635H151.859V12.1348L140.348 23.8684Z" fill="#F82837"/>
<path d="M88.2318 12.2794V17.5012H95.1063V35.7287H100.309V17.5012H107.215V12.2794H88.2318Z" fill="#F82837"/>
<path d="M115.602 22.9066L119.081 30.4744H112.109L115.602 22.9066ZM115.602 12L104.221 35.7287H126.985L115.602 12Z" fill="#F82837"/>
<path d="M165.094 22.9066L168.572 30.4744H161.6L165.094 22.9066ZM165.094 12L153.711 35.7287H176.475L165.092 12H165.094Z" fill="#F82837"/>
<path d="M178.329 12V35.7287H183.532V23.4687L198.101 35.9935V12.2648H192.897V24.5248L178.329 12Z" fill="#F82837"/>
<path d="M215.725 12.2648L207.659 24.0292V12.2648H202.456V35.7287H207.659V24.7246L216.31 35.7287H222.75L213.612 24.0959L221.709 12.2648H215.725Z" fill="#F82837"/>
<path d="M75.8049 12.0065C82.3085 12.0065 87.6099 17.3924 87.6099 24.0033C87.6099 30.6141 82.3101 36 75.8049 36C69.2997 36 64 30.6141 64 24.0033C64 17.3924 69.2997 12.0065 75.8049 12.0065ZM75.8049 17.095C72.0655 17.095 69.2358 20.2356 69.2358 24.0016C69.2358 27.7677 72.0655 30.9082 75.8049 30.9082C79.5443 30.9082 82.3741 27.7693 82.3741 24.0016C82.3741 20.234 79.5443 17.095 75.8049 17.095Z" fill="#F82837"/>
<path d="M248 35.7189H224.921V12.2648H248V35.7189ZM242.799 17.485H230.121V30.5004H242.799V17.4833V17.485Z" fill="#F82837"/>
</svg>
