<svg width="252" height="42" viewBox="0 0 252 42" fill="none" xmlns="http://www.w3.org/2000/svg">
<path d="M195.071 0H0V42H195.071V0Z" fill="#F82837"/>
<path d="M251.717 0H195.07V42H251.717V0Z" fill="#FFE000"/>
<path d="M81.4677 20.8712L70.3828 9.75391V32.2363H75.3919V21.3407L81.4677 27.415L87.5421 21.3407V32.2363H92.5512V9.75391L81.4677 20.8712Z" fill="white"/>
<path d="M31.2891 9.89258V14.8401H37.9083V32.1102H42.9174V14.8401H49.5674V9.89258H31.2891Z" fill="white"/>
<path d="M57.6384 19.9607L60.9881 27.1311H54.275L57.6384 19.9607ZM57.6384 9.62695L46.6797 32.1094H68.5987L57.6384 9.62695Z" fill="white"/>
<path d="M105.296 19.9607L108.646 27.1311H101.933L105.296 19.9607ZM105.296 9.62695L94.3359 32.1094H116.255L105.295 9.62695H105.296Z" fill="white"/>
<path d="M118.039 9.62695V32.1094H123.048V20.4933L137.076 32.3603V9.87787H132.066V21.4939L118.039 9.62695Z" fill="white"/>
<path d="M154.042 9.87695L146.276 21.0235V9.87695H141.266V32.1084H146.276V21.6823L154.606 32.1084H160.806L152.007 21.0866L159.804 9.87695H154.042Z" fill="white"/>
<path d="M19.3198 9.63281C25.5819 9.63281 30.6864 14.7358 30.6864 20.9995C30.6864 27.2631 25.5834 32.3661 19.3198 32.3661C13.0561 32.3661 7.95312 27.2631 7.95312 20.9995C7.95312 14.7358 13.0561 9.63281 19.3198 9.63281ZM19.3198 14.4541C15.7192 14.4541 12.9945 17.4297 12.9945 20.9979C12.9945 24.5662 15.7192 27.5418 19.3198 27.5418C22.9203 27.5418 25.645 24.5677 25.645 20.9979C25.645 17.4282 22.9203 14.4541 19.3198 14.4541Z" fill="white"/>
<path d="M185.121 32.0992H162.898V9.87695H185.121V32.0992ZM180.113 14.8229H167.906V27.1548H180.113V14.8214V14.8229Z" fill="white"/>
<path d="M204.941 19.1089V11.3613H202.484V9.87891H208.933V11.3613H206.464V19.1089H204.941Z" fill="#101834"/>
<path d="M214.449 18.2384C213.799 18.8896 212.997 19.2129 212.043 19.2129C211.089 19.2129 210.288 18.8896 209.638 18.2384C208.989 17.5888 208.664 16.7961 208.664 15.8601C208.664 14.9242 208.989 14.1299 209.638 13.4803C210.288 12.8307 211.09 12.5059 212.043 12.5059C212.996 12.5059 213.799 12.8307 214.449 13.4803C215.099 14.1299 215.423 14.9227 215.423 15.8601C215.423 16.7976 215.099 17.5888 214.449 18.2384ZM210.659 17.3025C211.019 17.6843 211.481 17.8752 212.043 17.8752C212.605 17.8752 213.065 17.6843 213.421 17.3025C213.776 16.9208 213.953 16.4405 213.953 15.8601C213.953 15.2798 213.776 14.798 213.421 14.4162C213.065 14.0344 212.606 13.8436 212.043 13.8436C211.48 13.8436 211.019 14.0344 210.659 14.4162C210.299 14.798 210.12 15.2798 210.12 15.8601C210.12 16.4405 210.299 16.9208 210.659 17.3025Z" fill="#101834"/>
<path d="M217.198 21.5003L218.382 18.7587L215.82 12.6074H217.355L219.136 17.1193L220.917 12.6074H222.45L218.72 21.5003H217.198Z" fill="#101834"/>
<path d="M225.145 19.2125C224.044 19.2125 223.239 18.7707 222.727 17.8871L223.844 17.1328C224.164 17.7054 224.615 17.9902 225.196 17.9902C225.456 17.9902 225.671 17.9363 225.845 17.8286C226.018 17.7208 226.105 17.5669 226.105 17.3668C226.105 17.1666 226.032 17.005 225.885 16.8788C225.738 16.7541 225.477 16.6263 225.105 16.4955L224.663 16.3261C223.589 15.9275 223.05 15.264 223.05 14.3373C223.05 13.8093 223.25 13.3706 223.649 13.0242C224.047 12.6779 224.551 12.5039 225.157 12.5039C226.076 12.5039 226.738 12.8764 227.146 13.6215L226.184 14.3511C225.95 13.917 225.608 13.7 225.157 13.7C224.949 13.7 224.771 13.7508 224.625 13.8555C224.477 13.9586 224.403 14.0987 224.403 14.2711C224.403 14.4527 224.468 14.6051 224.598 14.7267C224.728 14.8468 224.966 14.973 225.314 15.1039L225.756 15.2732C226.346 15.4887 226.78 15.7581 227.057 16.0798C227.334 16.4 227.472 16.7987 227.472 17.2744C227.472 17.847 227.258 18.3119 226.829 18.6721C226.399 19.0323 225.839 19.2109 225.145 19.2109" fill="#101834"/>
<path d="M204.969 32.0328V22.8027H206.399V26.0924C206.893 25.6506 207.504 25.4289 208.232 25.4289C209.168 25.4289 209.944 25.7537 210.56 26.4033C211.175 27.0529 211.482 27.8457 211.482 28.7832C211.482 29.7206 211.174 30.5119 210.56 31.1615C209.944 31.8126 209.168 32.1359 208.232 32.1359C207.495 32.1359 206.885 31.9204 206.399 31.4863V32.0328H204.969ZM208.101 26.7543C207.33 26.7543 206.762 27.0452 206.397 27.6256V29.9515C206.762 30.5242 207.33 30.8105 208.101 30.8105C208.665 30.8105 209.127 30.6181 209.485 30.2317C209.845 29.8469 210.026 29.3635 210.026 28.7832C210.026 28.2028 209.845 27.7195 209.485 27.3331C209.127 26.9482 208.663 26.7543 208.101 26.7543Z" fill="#101834"/>
<path d="M213.278 34.4242L214.46 31.681L211.898 25.5312H213.433L215.214 30.0431L216.995 25.5312H218.53L214.799 34.4242H213.278Z" fill="#101834"/>
<path d="M224.079 22.8027H222.57V32.0328H224.079V22.8027Z" fill="#101834"/>
<path d="M226.367 32.0328V22.8027H229.591C230.406 22.8027 231.064 23.0444 231.567 23.5309C232.069 24.0173 232.321 24.6192 232.321 25.3381C232.321 26.1016 232.04 26.6989 231.476 27.133C232.457 27.5578 232.946 28.3075 232.946 29.382C232.946 30.1794 232.662 30.8197 232.095 31.3062C231.527 31.7911 230.797 32.0343 229.905 32.0343H226.369L226.367 32.0328ZM227.876 26.6896H229.487C229.895 26.6896 230.22 26.5726 230.462 26.3387C230.704 26.1062 230.825 25.806 230.825 25.4412C230.825 25.0764 230.704 24.7993 230.462 24.5576C230.219 24.3144 229.894 24.1928 229.487 24.1928H227.876V26.6896ZM227.876 30.6412H229.917C230.402 30.6412 230.776 30.5196 231.041 30.2763C231.306 30.0347 231.438 29.7129 231.438 29.3142C231.438 28.9155 231.306 28.5938 231.041 28.346C230.776 28.0981 230.402 27.975 229.917 27.975H227.876V30.6412Z" fill="#101834"/>
<path d="M236.118 22.8027H234.609V32.0328H236.118V22.8027Z" fill="#101834"/>
<path d="M240.745 32.1351C240.06 32.1351 239.446 31.9919 238.9 31.7056C238.353 31.4193 237.928 31.0391 237.625 30.5619L238.769 29.5998C238.994 29.92 239.28 30.1847 239.626 30.3925C239.973 30.6004 240.337 30.705 240.719 30.705C241.17 30.705 241.521 30.6111 241.772 30.4203C242.023 30.2294 242.149 29.9692 242.149 29.6398C242.149 29.3104 242.043 29.0348 241.831 28.8147C241.618 28.5946 241.273 28.3791 240.798 28.1712L240.069 27.8588C238.692 27.2445 238.002 26.3379 238.002 25.1418C238.002 24.4229 238.275 23.8349 238.821 23.3792C239.368 22.9236 240.008 22.6973 240.745 22.6973C241.811 22.6973 242.674 23.0867 243.333 23.8672L242.28 24.9463C242.046 24.6523 241.809 24.4414 241.57 24.3167C241.332 24.1904 241.049 24.1289 240.719 24.1289C240.39 24.1289 240.108 24.2197 239.874 24.4013C239.64 24.583 239.523 24.8262 239.523 25.1295C239.523 25.4327 239.625 25.6882 239.828 25.8976C240.031 26.1054 240.371 26.3132 240.848 26.521L241.564 26.8335C242.968 27.457 243.67 28.3498 243.67 29.512C243.67 30.2925 243.404 30.9252 242.871 31.4101C242.339 31.8965 241.63 32.1382 240.745 32.1382" fill="#101834"/>
</svg>
